<?xml version="1.0" standalone="no"?><!DOCTYPE svg PUBLIC "-//W3C//DTD SVG 1.1//EN" "http://www.w3.org/Graphics/SVG/1.1/DTD/svg11.dtd"><svg t="1700466440463" class="icon" viewBox="0 0 1024 1024" version="1.1" xmlns="http://www.w3.org/2000/svg" p-id="4988" xmlns:xlink="http://www.w3.org/1999/xlink" width="200" height="200"><path d="M827.733333 787.2l164.266667 164.266667-40.533333 40.533333-164.266667-164.266667 40.533333-40.533333z m-360.533333 57.6c209.066667 0 377.6-168.533333 377.6-377.6 0-209.066667-168.533333-377.6-377.6-377.6S89.6 258.133333 89.6 467.2c0 209.066667 168.533333 377.6 377.6 377.6z m0 57.6c-241.066667 0-435.2-194.133333-435.2-435.2 0-241.066667 194.133333-435.2 435.2-435.2s435.2 194.133333 435.2 435.2c0 241.066667-194.133333 435.2-435.2 435.2z" fill="#1379FF" p-id="4989"></path></svg>